<?xml version="1.0" encoding="utf-8"?>
<!-- Generator: Adobe Illustrator 25.2.1, SVG Export Plug-In . SVG Version: 6.00 Build 0)  -->
<svg version="1.1" id="Layer_1" xmlns="http://www.w3.org/2000/svg" xmlns:xlink="http://www.w3.org/1999/xlink" x="0px" y="0px"
	 viewBox="0 0 934 102.3" style="enable-background:new 0 0 934 102.3;" xml:space="preserve">
<style type="text/css">
	.st0{fill:#EBF4E2;}
	.st1{fill:#9AD099;stroke:#FFFFFF;stroke-width:0.8523;stroke-miterlimit:9.999;}
	.st2{fill:#58B179;stroke:#FFFFFF;stroke-width:0.8523;stroke-miterlimit:10;}
	.st3{fill:#97CF98;stroke:#FFFFFF;stroke-width:0.8523;stroke-miterlimit:10;}
	.st4{fill:#248960;stroke:#FFFFFF;stroke-width:0.8523;stroke-miterlimit:10;}
	.st5{fill:#FFFFFF;stroke:#231F20;stroke-width:2;stroke-linecap:round;stroke-linejoin:round;stroke-miterlimit:3.9996;}
	.st6{fill:#FFFFFF;stroke:#231F20;stroke-width:0.5;stroke-linecap:round;stroke-linejoin:round;stroke-miterlimit:3.9996;}
</style>
<g>
	<polygon class="st0" points="933.1,91.6 874.2,96.8 719.2,94.5 372.9,88.6 0.9,85.8 77.5,81.5 235.5,60.1 259.1,67 280.3,62.2 
		362,77.2 484.3,67 523,60.1 655.2,72.8 707.4,69.4 738.9,59.8 755.5,56.9 815.9,82.3 848.4,71.7 890.6,88.1 	"/>
	<polygon class="st1" points="890.6,93.2 853.2,84.1 815.9,101.7 	"/>
	<polygon class="st1" points="853.2,84.1 799.1,67 815.9,101.7 	"/>
	<polygon class="st2" points="799.1,67 719.2,94.5 815.9,101.7 	"/>
	<polygon class="st3" points="719.2,94.5 687.7,79.9 633.8,91.9 	"/>
	<polygon class="st1" points="687.7,79.9 651.1,56 633.8,91.9 	"/>
	<polygon class="st1" points="651.1,56 566.4,60.1 633.8,91.9 	"/>
	<polygon class="st2" points="633.8,91.9 577.9,101.7 566.4,60.1 	"/>
	<polygon class="st1" points="566.4,60.1 511.5,94.5 577.9,101.7 	"/>
	<polygon class="st2" points="566.4,60.1 517.9,74.2 511.5,94.5 	"/>
	<polygon class="st3" points="517.9,74.2 416.7,75.7 511.5,94.5 	"/>
	<polygon class="st3" points="416.7,75.7 416.7,101.7 511.5,94.5 	"/>
	<polygon class="st2" points="416.7,75.7 329.1,62.4 416.7,101.7 	"/>
	<polygon class="st1" points="329.1,62.4 259.1,81.5 313.5,91.9 	"/>
	<polygon class="st3" points="259.1,81.5 187.5,63.7 228.1,94.5 	"/>
	<polygon class="st4" points="187.5,63.7 85,101.7 228.1,94.5 	"/>
	<polygon class="st2" points="85,101.7 77.5,51.3 187.5,63.7 	"/>
	<polygon class="st1" points="85,101.7 0.9,85.8 77.5,51.3 	"/>
	<polygon class="st1" points="416.7,101.7 313.5,91.9 329.1,62.4 	"/>
	<polygon class="st4" points="313.5,91.9 292.5,101.7 416.7,101.7 	"/>
	<polygon class="st2" points="292.5,101.7 259.1,81.5 313.5,91.9 	"/>
	<polygon class="st2" points="292.5,101.7 228.1,94.5 259.1,81.5 	"/>
	<g>
		<polygon class="st5" points="169.1,38.2 169.1,38.2 168,37.9 168,37.9 		"/>
		<path class="st5" d="M179.8,53.5L179.8,53.5L179.8,53.5z"/>
		<path class="st5" d="M195.8,61.9"/>
		<path class="st5" d="M179.8,53.5L179.8,53.5L179.8,53.5z"/>
		<path class="st5" d="M200.8,55.3l-1,0.2l-3.9,6.5l2.3,15.8l3.6,1.4l3.8,3.7l-7.5,2.6l-5.5-1.6l0.3-3.8l-2-3.3l-4.5-3.3L163,69.7
			l-3,5.1l2.3,2.8l7,2.8l-2.4,3.6l-5.7,1l-3.1-0.4l-2.3-1.1l-2.6-7.2l-7.5-3.7l-15.9-10.7l-5-0.8l2.5,3.1l-3,3.7l-6.8,0.6l-7.3-4.9
			l-2.7-2.4l-5,2.3l-7.8,1.3l-17.5,0.7L68.9,58l7.8-8.7l8.4-0.3l12.1-2.1l-1.4-2.4l5.9-17.6l9.8-14.7l11-7.7l12.2-3.9l11.7,0.3
			l9.7,4.9l9.1,9.2l20.5,13.9l10.2,7.1l4.5,6.3l2.7,1.7l0.4,2.5l-0.2,0.2l0.7,4.7L200.8,55.3z"/>
	</g>
	<g>
		<polygon class="st6" points="170.6,34.8 166.4,37.6 169.1,38.2 		"/>
		<polygon class="st6" points="166.4,37.6 168.1,43.2 171.7,38.8 		"/>
		<polygon class="st6" points="170.6,34.8 171.7,38.8 169.1,38.2 		"/>
		<polygon class="st6" points="184.5,41.8 186,40.2 186,42.1 		"/>
		<polygon class="st6" points="186,40.2 187.3,41.5 186,42.1 		"/>
		<polygon class="st6" points="187.3,41.5 186.2,43.2 186,42.1 		"/>
		<polygon class="st6" points="186.2,43.2 184.5,41.8 186,42.1 		"/>
		<polygon class="st6" points="186,40.2 193.5,47.6 197.8,42 		"/>
		<polygon class="st6" points="197.8,42 200.3,42.5 195.8,36.2 		"/>
		<polygon class="st6" points="200.3,42.5 195.8,44.6 197.8,42 		"/>
		<polygon class="st6" points="200.3,42.5 201.3,45.2 195.8,44.6 		"/>
		<polygon class="st6" points="200.4,46.7 196.9,46.9 198.4,47.4 		"/>
		<polygon class="st6" points="200.3,42.5 203,44.2 201.3,45.2 		"/>
		<polygon class="st6" points="201.3,45.2 200.4,46.7 202,47.7 		"/>
		<polygon class="st6" points="203,44.2 203.4,46.7 201.3,45.2 		"/>
		<polygon class="st6" points="203.4,46.7 202,47.7 201.3,45.2 		"/>
		<polygon class="st6" points="200.4,46.7 195.8,44.6 201.3,45.2 		"/>
		<polygon class="st6" points="195.8,44.6 196.9,46.9 200.4,46.7 		"/>
		<polygon class="st6" points="198.4,47.4 198.1,49.5 202,47.7 		"/>
		<polygon class="st6" points="198.4,47.4 200.4,46.7 202,47.7 		"/>
		<polygon class="st6" points="198.1,49.5 196.9,46.9 198.4,47.4 		"/>
		<polygon class="st6" points="200.8,55.3 203.8,51.6 202,47.7 		"/>
		<polygon class="st6" points="203.8,51.6 203.2,46.9 202,47.7 		"/>
		<polygon class="st6" points="200.8,55.3 193.1,56.6 202,47.7 		"/>
		<polygon class="st6" points="198.1,49.5 193.5,47.6 195.8,44.6 		"/>
		<polygon class="st6" points="198.1,49.5 200.7,49 202,47.7 		"/>
		<polygon class="st6" points="187.3,41.5 179.8,53.5 193.5,47.6 		"/>
		<polygon class="st6" points="198.1,49.5 193.1,56.6 200.7,49 		"/>
		<polygon class="st6" points="193.1,56.6 193.5,47.6 198.1,49.5 		"/>
		<polygon class="st6" points="193.1,56.6 179.8,53.5 193.5,47.6 		"/>
		<polygon class="st6" points="193.1,56.6 173.4,63.8 179.8,53.5 		"/>
		<polygon class="st6" points="184.3,59.8 189,64.1 173.4,63.8 		"/>
		<polygon class="st6" points="186,40.2 178.9,30.2 195.8,36.2 		"/>
		<polygon class="st6" points="186,40.2 197.8,42 195.8,36.2 		"/>
		<polygon class="st6" points="178.9,30.2 185.7,29.1 195.8,36.2 		"/>
		<polygon class="st6" points="186.2,43.2 176.9,35.9 171.7,38.8 		"/>
		<polygon class="st6" points="171.7,38.8 162.9,49.8 186.2,43.2 		"/>
		<polygon class="st6" points="186,40.2 176.9,35.9 178.9,30.2 		"/>
		<polygon class="st6" points="186,40.2 184.5,41.8 176.9,35.9 		"/>
		<path class="st6" d="M195.8,61.9"/>
		<polygon class="st6" points="185.7,29.1 165.1,15.1 178.9,30.2 		"/>
		<polygon class="st6" points="171.7,38.8 165.1,15.1 173.1,23.9 		"/>
		<polygon class="st6" points="176.9,35.9 173.1,23.9 171.7,38.8 		"/>
		<polygon class="st6" points="176.9,35.9 173.1,23.9 178.9,30.2 		"/>
		<polygon class="st6" points="173.4,63.8 162.9,49.8 186.2,43.2 		"/>
		<polygon class="st6" points="173.4,63.8 158.9,71.7 147.1,58.2 		"/>
		<polygon class="st6" points="162.9,49.8 147.1,58.2 173.4,63.8 		"/>
		<polygon class="st6" points="168.1,43.2 150.6,42.1 162.9,49.8 		"/>
		<polygon class="st6" points="170.6,34.8 167.5,23.5 166.4,37.6 		"/>
		<polygon class="st6" points="166.4,37.6 150.6,42.1 168.1,43.2 		"/>
		<polygon class="st6" points="167.5,23.5 150.6,42.1 166.4,37.6 		"/>
		<polygon class="st6" points="147.1,58.2 150.6,42.1 162.9,49.8 		"/>
		<polygon class="st6" points="147.1,58.2 122,56.7 145.5,72.5 		"/>
		<polygon class="st6" points="158.9,71.7 146,68 147.1,58.2 		"/>
		<polygon class="st6" points="153.4,70.1 145.5,72.5 146,68 		"/>
		<polygon class="st6" points="165.1,15.1 146,20.7 167.5,23.5 		"/>
		<polygon class="st6" points="165.1,15.1 146.8,5.7 146,20.7 		"/>
		<polygon class="st6" points="156,5.9 146.8,5.7 165.1,15.1 		"/>
		<polygon class="st6" points="156,5.9 146.3,1 146.8,5.7 		"/>
		<polygon class="st6" points="146,20.7 150.6,42.1 167.5,23.5 		"/>
		<polygon class="st6" points="150.6,42.1 122,56.7 146,20.7 		"/>
		<polygon class="st6" points="150.6,42.1 147.1,58.2 122,56.7 		"/>
		<polygon class="st6" points="122,56.7 95.8,44.6 103.2,57.3 		"/>
		<polygon class="st6" points="103.2,57.3 129.6,61.8 122,56.7 		"/>
		<polygon class="st6" points="95.8,44.6 101.6,27 122,56.7 		"/>
		<polygon class="st6" points="101.6,27 146,20.7 122,56.7 		"/>
		<polygon class="st6" points="111.4,12.3 122.3,4.6 124.7,23.7 		"/>
		<polygon class="st6" points="122.3,4.6 134.6,0.7 124.7,23.7 		"/>
		<polygon class="st6" points="146.8,5.7 124.7,23.7 134.6,0.7 		"/>
		<polygon class="st6" points="146.3,1 134.6,0.7 146.8,5.7 		"/>
		<polygon class="st6" points="146.8,5.7 146,20.7 124.7,23.7 		"/>
		<polygon class="st6" points="153.4,70.1 153.1,76.2 145.5,72.5 		"/>
		<polygon class="st6" points="158.9,71.7 153.1,76.2 153.4,70.1 		"/>
		<polygon class="st6" points="162.9,69.6 159.9,74.7 158.9,71.7 		"/>
		<polygon class="st6" points="159.9,74.7 162.2,77.5 155.7,83.4 		"/>
		<polygon class="st6" points="155.7,83.4 153.1,76.2 159.9,74.7 		"/>
		<polygon class="st6" points="153.1,76.2 158.9,71.7 159.9,74.7 		"/>
		<polygon class="st6" points="162.2,77.5 169.2,80.3 165.3,80.6 		"/>
		<polygon class="st6" points="165.3,80.6 166.7,83.9 161.1,84.9 		"/>
		<polygon class="st6" points="161.1,84.9 158,84.5 162.2,77.5 		"/>
		<polygon class="st6" points="161.1,84.9 162.2,77.5 165.3,80.6 		"/>
		<polygon class="st6" points="158,84.5 155.7,83.4 162.2,77.5 		"/>
		<polygon class="st6" points="169.2,80.3 166.7,83.9 165.3,80.6 		"/>
		<polygon class="st6" points="162.9,69.6 186.3,73.3 173.4,63.8 		"/>
		<polygon class="st6" points="190.7,76.6 189,64.1 173.4,63.8 		"/>
		<polygon class="st6" points="198.1,77.7 189,64.1 195.8,61.9 		"/>
		<polygon class="st6" points="198.1,77.7 201.7,79 192.5,83.7 		"/>
		<polygon class="st6" points="192.5,83.7 192.8,79.9 198.1,77.7 		"/>
		<polygon class="st6" points="192.8,79.9 190.7,76.6 198.1,77.7 		"/>
		<polygon class="st6" points="198.1,77.7 190.7,76.6 189,64.1 		"/>
		<polygon class="st6" points="201.7,79 205.5,82.8 198,85.3 		"/>
		<polygon class="st6" points="198,85.3 192.5,83.7 201.7,79 		"/>
		<polygon class="st6" points="195.8,61.9 199.7,55.4 193.1,56.6 		"/>
		<polygon class="st6" points="195.8,61.9 184.3,59.8 193.1,56.6 		"/>
		<polygon class="st6" points="189,64.1 184.3,59.8 195.8,61.9 		"/>
		<polygon class="st6" points="101.6,27 111.4,12.3 124.7,23.7 		"/>
		<polygon class="st6" points="110.1,63.5 103.2,57.3 124.6,61 		"/>
		<polygon class="st6" points="127.2,64.1 124.2,67.8 117.4,68.4 		"/>
		<polygon class="st6" points="101.6,54.6 94.6,64.7 103.2,57.3 		"/>
		<polygon class="st6" points="107.4,61.1 102.4,63.4 103.2,57.3 		"/>
		<polygon class="st6" points="102.4,63.4 94.6,64.7 103.2,57.3 		"/>
		<polygon class="st6" points="94.6,64.7 77.1,65.4 97.7,60.2 		"/>
		<polygon class="st6" points="101.6,54.6 97.1,46.9 97.7,60.2 		"/>
		<polygon class="st6" points="97.1,46.9 85,49 97.7,60.2 		"/>
		<polygon class="st6" points="85,49 68.8,57.9 77.1,65.4 		"/>
		<polygon class="st6" points="77.1,65.4 97.7,60.2 85,49 		"/>
		<polygon class="st6" points="85,49 76.6,49.3 68.8,57.9 		"/>
		<polygon class="st6" points="110.1,63.5 122.7,66.1 124.6,61 		"/>
		<polygon class="st6" points="122.7,66.1 117.4,68.4 110.1,63.5 		"/>
		<polygon class="st6" points="122.7,66.1 124.6,61 127.2,64.1 		"/>
		<polygon class="st6" points="168.1,43.2 168,37.9 171.7,38.8 		"/>
	</g>
	<polygon class="st1" points="890.6,93.2 929.1,91.9 880.3,101.7 	"/>
	<polygon class="st4" points="880.3,101.7 815.9,101.7 890.6,93.2 	"/>
</g>
</svg>
